<svg width="52" height="46" viewBox="0 0 52 46" fill="none" xmlns="http://www.w3.org/2000/svg">
<path d="M20.7659 19.071C21.8226 19.0702 22.7767 18.469 23.1901 17.5439C23.6038 16.6185 23.3969 15.5476 22.6647 14.8227L21.4483 13.6207C21.2865 13.4615 21.0655 13.3696 20.8329 13.3651C20.6007 13.3638 20.3766 13.4472 20.2071 13.5983L17.6683 15.9193L15.136 18.2403C14.9003 18.4457 14.7999 18.7561 14.8742 19.0514C14.948 19.3471 15.1849 19.5811 15.4922 19.6632C15.7995 19.7449 16.1296 19.662 16.3541 19.4459L18.2537 17.7053L18.4868 17.9352L17.3554 20.973C17.2464 21.2556 17.3052 21.5725 17.5095 21.8025C17.7142 22.032 18.0327 22.1394 18.3439 22.0834C18.6546 22.0275 18.91 21.8168 19.0122 21.5317L19.974 18.9472C20.2298 19.0265 20.4968 19.0685 20.7659 19.071ZM20.7891 15.3806L21.399 15.983C21.7368 16.3167 21.7265 16.8476 21.3762 17.169C21.0256 17.4904 20.4676 17.4806 20.1298 17.1474L19.5203 16.5441L20.7891 15.3806Z" fill="white"/>
<path d="M16.5836 14.8504C17.2347 14.8341 17.8562 14.5866 18.3258 14.157C19.3748 13.1956 19.4065 11.6072 18.3962 10.6087L17.1759 9.40344C16.839 9.0714 16.2836 9.0616 15.9338 9.3818L10.8691 14.0238C10.5193 14.3444 10.5095 14.8741 10.8464 15.2066L12.0653 16.411C12.5486 16.8913 13.213 17.1678 13.9114 17.1792H13.9624C15.3445 17.1821 16.4909 16.1619 16.5802 14.8496L16.5836 14.8504ZM16.5201 11.1702L17.1296 11.7722C17.4661 12.1051 17.4553 12.6348 17.1055 12.955C16.9446 13.1188 16.715 13.2049 16.4797 13.1894C16.2471 13.1853 16.0256 13.0934 15.8647 12.9334L15.2552 12.3301L16.5201 11.1702ZM14.5732 15.276C14.411 15.4377 14.1822 15.5235 13.9474 15.5104C13.7144 15.5064 13.4929 15.4136 13.3319 15.2535L12.7229 14.6511L13.9886 13.4912L14.5977 14.0932C14.932 14.4261 14.9209 14.953 14.5732 15.2727V15.276Z" fill="white"/>
<path d="M27.5439 19.6448C27.2898 19.3936 26.8984 19.3188 26.5623 19.4573L19.6671 22.2921C19.2254 22.4775 19.0237 22.9672 19.2151 23.3891C19.4065 23.8106 19.9194 24.0066 20.3641 23.8277L21.529 23.3487L23.4278 25.2253L22.8818 26.3129C22.6728 26.7295 22.8587 27.229 23.2965 27.4279C23.4145 27.4826 23.5437 27.5112 23.6746 27.5112C24.0124 27.5108 24.3201 27.3258 24.4656 27.0354L27.7014 20.5857C27.8602 20.2717 27.7976 19.8968 27.5439 19.6448ZM23.2527 22.6401L25.1073 21.8771L24.2373 23.6129L23.2527 22.6401Z" fill="white"/>
<path d="M34.2519 26.2717C33.915 25.9389 33.3588 25.9291 33.009 26.2493L30.1504 28.868L31.4205 24.0426C31.5153 23.6812 31.3471 23.3034 31.008 23.1167C30.6689 22.9301 30.241 22.9791 29.9586 23.2372L24.8939 27.8796C24.5591 28.2023 24.5557 28.7206 24.8866 29.0469C25.2171 29.3736 25.7614 29.3899 26.1129 29.084L28.9705 26.4649L27.7005 31.2903C27.6052 31.6521 27.7731 32.0303 28.1121 32.2174C28.4516 32.4044 28.8796 32.355 29.1624 32.0969L34.2262 27.4545C34.5764 27.1347 34.588 26.605 34.2519 26.2717V26.2717Z" fill="white"/>
<path d="M36.0813 28.0794C35.9199 27.9197 35.6984 27.8274 35.4658 27.8225C35.2345 27.8278 35.013 27.9107 34.84 28.0569L29.7749 32.6989C29.426 33.0191 29.4153 33.548 29.7513 33.8809L30.3612 34.4841C31.4424 35.5942 33.0696 36.0618 34.616 35.7069C36.162 35.352 37.3861 34.2301 37.8166 32.7728C38.2467 31.3156 37.8162 29.751 36.6903 28.6818L36.0813 28.0794ZM35.3551 33.39C34.3061 34.3514 32.6369 34.322 31.6261 33.3238L35.4246 29.8417C36.435 30.8398 36.4041 32.4286 35.3551 33.39Z" fill="white"/>
<path d="M47.3915 27.3785L48.377 26.4408L47.134 25.258L46.1485 26.1957V24.8692H44.3905V26.1957L43.405 25.258L42.1625 26.4408L43.1475 27.3785H41.7534V29.0513H43.1475L42.1625 29.9899L43.405 31.1726L44.3905 30.2341V31.5606H46.1485V30.2341L47.134 31.1726L48.377 29.9899L47.3915 29.0513H48.7856V27.3785H47.3915Z" fill="white"/>
<path d="M45.2694 21.9417C43.741 21.9401 42.2598 22.4465 41.0821 23.3736L18.5834 1.14738C18.404 0.969309 18.1512 0.87619 17.8924 0.892119L3.3624 1.7845L1.8151 0.25622C1.47818 -0.076636 0.921494 -0.0864379 0.572118 0.234166C0.222314 0.55477 0.211584 1.08448 0.548512 1.41734L2.07821 2.92806L0.00985589 16.0875C-0.0309189 16.3444 0.0562104 16.6046 0.245491 16.7916L28.9067 45.1056C29.2432 45.4385 29.7999 45.4487 30.1497 45.1281L42.4328 33.8698C44.8784 34.9872 47.7932 34.5653 49.7787 32.8063C51.7638 31.0477 52.4149 28.3113 51.4182 25.9107C50.4221 23.51 47.982 21.9352 45.2694 21.9417V21.9417ZM3.61735 4.44857L4.92772 5.74324C4.52169 6.51228 4.5586 7.42549 5.02644 8.16227C5.49428 8.89864 6.32651 9.35484 7.23085 9.36995H7.28107C8.73737 9.38302 9.92885 8.26968 9.94216 6.88394C9.95546 5.49779 8.78587 4.36444 7.32957 4.35137C6.9377 4.34361 6.54927 4.42244 6.19474 4.58172L4.95948 3.36301L17.5988 2.58662L17.9267 2.91049L2.73189 16.837L1.81253 15.9278L3.61735 4.44857ZM6.67116 6.25866C6.83383 6.10796 7.0523 6.02382 7.27935 6.02423H7.29695C7.65233 6.03117 7.96823 6.24069 8.09785 6.55558C8.22747 6.87046 8.14506 7.22864 7.88926 7.46307C7.72487 7.62153 7.49739 7.70648 7.26347 7.69627C6.90809 7.69015 6.59176 7.48063 6.46171 7.16574C6.33166 6.85086 6.41407 6.49227 6.67031 6.25784L6.67116 6.25866ZM29.5634 43.3425L25.6808 39.5067H33.7482L29.5634 43.3425ZM35.5457 37.8596V37.8339H23.9867L3.95557 18.0414L19.1461 4.1149L39.891 24.6074C37.9403 27.2237 38.3914 30.821 40.9344 32.9272L35.5457 37.8596ZM45.2694 32.8153C42.5993 32.8153 40.4348 30.7557 40.4348 28.2149C40.4348 25.6742 42.5993 23.6146 45.2694 23.6146C47.9395 23.6146 50.104 25.6742 50.104 28.2149C50.1014 30.7544 47.9382 32.8124 45.2694 32.8153Z" fill="white"/>
</svg>
