<svg width="43" height="39" viewBox="0 0 43 39" fill="none" xmlns="http://www.w3.org/2000/svg">
<path d="M13.4186 9.92554L10.4294 12.5801V26.9331L13.4186 29.5877H29.5815L32.5706 26.9331V12.5801L29.5815 9.92554H13.4186ZM22.97 20.652C23.7667 20.652 24.4149 21.2276 24.4149 21.9351C24.4149 22.6427 23.7667 23.2182 22.97 23.2182H20.6069V20.652H22.97ZM22.323 18.414H20.6069V16.3044H22.323C22.9779 16.3044 23.5108 16.7776 23.5108 17.3592C23.5108 17.9409 22.978 18.414 22.323 18.414ZM12.9496 26.0062V13.5071L14.4625 12.1635H20.2414V14.0665H16.5749V16.3045H18.0869V23.2183H16.5749V25.4562H20.2414V27.3499H14.4625L12.9496 26.0062ZM30.0506 26.0062L28.5376 27.3498H22.7615V25.4561H22.97C25.1563 25.4561 26.935 23.8766 26.935 21.935C26.935 20.8138 26.341 19.814 25.4187 19.1687C25.8052 18.6491 26.031 18.0272 26.031 17.3592C26.031 15.6754 24.6 14.2836 22.7615 14.0903V12.1635H28.5376L30.0506 13.5071V26.0062Z" fill="#36AEBC"/>
<path d="M42.9999 14.7681V12.5302H37.7465V9.03849L33.5696 5.32926H29.6376V0.664062H27.1175V5.32926H22.76V0.664062H20.2399V5.32926H15.8823V0.664062H13.3622V5.32926H9.43026L5.25334 9.03849V12.5302H0V14.7681H5.25343V18.6377H0V20.8757H5.25343V24.7452H0V26.9832H5.25343V30.4749L9.43034 34.1842H13.3623V38.8494H15.8824V34.1842H20.2399V38.8494H22.7601V34.1842H27.1176V38.8494H29.6377V34.1842H33.5697L37.7466 30.4749V26.9832H43V24.7452H37.7466V20.8756H43V18.6377H37.7466V14.7681H42.9999V14.7681ZM35.2264 29.5479L32.5257 31.9462H10.4743L7.77362 29.5479V9.96545L10.4743 7.5672H32.5257L35.2264 9.96545V29.5479Z" fill="#36AEBC"/>
</svg>
