<svg width="40" height="36" viewBox="0 0 40 36" fill="none" xmlns="http://www.w3.org/2000/svg">
<path d="M34.2416 2.65403H38.1248V31.9832H34.2416V2.65403ZM26.5094 3.71557L25.9717 3.8745C25.2986 4.07692 24.5076 3.79503 24.2354 3.25853C24.105 2.99879 24.0987 2.71176 24.2184 2.44924C24.3572 2.1456 24.6521 1.90799 25.0265 1.7969L31.0889 0L31.8268 5.14004C31.8683 5.40177 31.7911 5.66903 31.6087 5.89043C31.3855 6.16243 31.027 6.33876 30.6248 6.37514C30.5766 6.37988 30.5226 6.38225 30.4706 6.38225C29.7847 6.38225 29.2022 5.96634 29.1157 5.416L29.0222 4.63833C22.0159 13.8695 5.88206 23.7633 5.18197 24.1895C4.94431 24.3342 4.66011 24.4113 4.3593 24.4113C3.95378 24.4113 3.57237 24.269 3.31352 24.0195C3.07544 23.7914 2.96409 23.5004 2.99858 23.2015C3.03472 22.8912 3.23042 22.6057 3.53622 22.4207C3.70034 22.3203 19.6804 12.4905 26.5094 3.71557ZM31.103 9.16833V31.9824H27.2207V9.16833H31.103ZM24.3135 15.9475V31.9832H20.43V15.9475H24.3135ZM17.2914 22.99V31.982H13.4086V22.99H17.2914ZM9.86784 26.5131V31.9824H5.98552V26.5131H9.86784ZM39.3326 35.5035H0V32.7621H39.333L39.3326 35.5035Z" fill="white"/>
</svg>
