<svg width="53" height="47" viewBox="0 0 53 47" fill="none" xmlns="http://www.w3.org/2000/svg">
<path d="M6.45692 19.1376C6.50243 19.1376 6.54787 19.1345 6.59281 19.1281L19.2464 17.3478C19.3882 17.3278 19.5222 17.2769 19.6364 17.1996C19.7506 17.1224 19.8415 17.0211 19.9008 16.905L25.1923 6.54386C25.257 6.41715 25.2818 6.27724 25.2642 6.13899C25.2466 6.00074 25.1872 5.86931 25.0922 5.75864C24.9973 5.64797 24.8703 5.5622 24.7249 5.51042C24.5795 5.45864 24.421 5.4428 24.2663 5.46457L11.6127 7.24493C11.4709 7.26489 11.3369 7.31579 11.2227 7.39307C11.1084 7.47035 11.0176 7.57159 10.9583 7.68772L5.66681 18.0488C5.60688 18.1662 5.58105 18.295 5.59169 18.4235C5.60232 18.5521 5.64908 18.6762 5.72769 18.7845C5.80629 18.8928 5.91423 18.9819 6.04163 19.0436C6.16902 19.1053 6.31181 19.1376 6.45692 19.1376ZM12.7941 15.0482L15.9815 16.2468L9.72042 17.1278L12.7941 15.0482ZM13.3322 12.7467L12.72 8.64945L21.1386 7.46493L13.3322 12.7467ZM11.7424 13.8224L8.66874 15.902L11.287 10.7752L11.7424 13.8224ZM18.6698 15.5842L14.3839 13.9725L22.1903 8.69071L18.6698 15.5842Z" fill="#40D4E6"/>
<path d="M7.04191 3.24285C7.97301 2.61207 8.95277 2.04004 9.97398 1.53096L9.1262 0.186279C8.03394 0.73068 6.98603 1.34244 5.99018 2.01706C3.7486 3.53364 1.7939 5.35233 0.337402 7.27647L1.77759 8.13618C3.12934 6.3505 4.94973 4.65841 7.04191 3.24285Z" fill="#40D4E6"/>
<path d="M51.9274 25.1852C51.4086 21.8021 49.5058 18.2293 46.5693 15.1249C42.7719 11.1103 37.8636 8.52335 33.3708 8.15136C33.1182 7.61023 32.788 7.10031 32.3884 6.63427L29.2333 2.9568C27.3608 0.774379 24.1401 -0.256282 20.1641 0.054209C16.3341 0.35346 12.2249 1.8714 8.59329 4.32853C4.96168 6.78561 2.22291 9.90097 0.881492 13.1007C-0.511088 16.4223 -0.246817 19.4535 1.62563 21.6359L3.43937 23.7499C3.0784 24.1889 2.77851 24.6651 2.54623 25.168L0.575016 29.447C-0.594868 31.9865 0.0365729 34.9746 2.35293 37.861C4.58424 40.6415 8.14022 43.0182 12.3658 44.5533C15.4494 45.6735 18.6318 46.2522 21.5983 46.2521C22.668 46.2548 23.7358 46.1744 24.7897 46.012C28.72 45.3949 31.5288 43.6565 32.6987 41.1171L34.5511 37.0958C34.8809 37.2095 35.2112 37.3133 35.5421 37.4074C36.8514 37.7921 38.2197 37.995 39.5987 38.0088C41.7371 38.0088 43.6249 37.4473 45.1074 36.3414L49.0938 33.3678C51.4595 31.6032 52.4659 28.6972 51.9274 25.1852ZM27.2067 30.5742L29.8634 28.5925C31.0314 29.7558 32.33 30.8102 33.7389 31.7395L31.1207 33.6925C29.6908 32.7842 28.3782 31.7384 27.2067 30.5742ZM26.0911 29.3938C25.7292 28.9832 25.3854 28.5635 25.0597 28.1348C25.0219 28.0767 24.9822 28.0194 24.9399 27.9631L24.9324 27.9676C24.291 27.1098 23.7225 26.2107 23.2318 25.2777C23.976 24.8698 24.7056 24.4244 25.4208 23.9417C25.6072 23.8155 25.7911 23.6875 25.9724 23.5576C26.7494 24.922 27.6791 26.2134 28.7474 27.4124L26.0911 29.3938ZM23.66 30.2591C23.4857 30.6373 23.1494 30.9386 22.725 31.0967C22.3007 31.2547 21.823 31.2567 21.397 31.102L21.3968 31.1019L17.3813 29.6431L18.4548 27.3129C19.5771 26.964 20.6682 26.5405 21.7189 26.0461C22.2589 27.0609 22.8859 28.0374 23.5944 28.9669C23.7102 29.1652 23.776 29.3834 23.7874 29.6066C23.7987 29.8297 23.7552 30.0523 23.66 30.2591V30.2591ZM21.683 33.3586C21.8157 33.6396 21.8516 33.9494 21.7861 34.2486C21.7206 34.5478 21.5567 34.823 21.3151 35.0395C21.0735 35.2559 20.765 35.4039 20.4286 35.4647C20.0923 35.5255 19.7432 35.4963 19.4255 35.3809L15.4101 33.9221L16.7242 31.0695L20.7397 32.5282C20.9509 32.6043 21.1431 32.7169 21.305 32.8595C21.4669 33.002 21.5954 33.1716 21.683 33.3586L21.683 33.3586ZM9.3341 24.5928C9.4269 24.5928 9.52051 24.5915 9.61433 24.59L11.4122 26.6854C9.1247 26.4989 7.3016 25.7087 6.16117 24.3795L6.01072 24.2041C7.09287 24.4698 8.21137 24.6007 9.3341 24.5928ZM13.6979 26.6809C13.6637 26.6835 13.63 26.6854 13.5959 26.6879L11.6646 24.4368C12.9134 24.2708 14.1414 23.9991 15.3319 23.6255L17.3772 26.0093C16.1821 26.3521 14.9483 26.5773 13.6979 26.6809ZM21.5671 20.7214L23.6698 23.1723C22.2394 24.08 20.7005 24.8447 19.0811 25.4525L17.0088 23.0372C18.6129 22.4049 20.1403 21.629 21.5671 20.7214L21.5671 20.7214ZM25.0502 22.2383L22.9474 19.7875C24.3114 18.8068 25.5593 17.705 26.6715 16.4994L28.7438 18.9148C27.6541 20.14 26.4154 21.2546 25.0502 22.2383H25.0502ZM29.8006 17.6037L27.7553 15.2199C28.477 14.2998 29.0979 13.3205 29.6096 12.2954L31.5409 14.5464C31.5292 14.5749 31.5183 14.6032 31.5063 14.6318C31.0619 15.6749 30.49 16.6715 29.8006 17.6037L29.8006 17.6037ZM32.118 12.6761L30.3203 10.5809C30.6762 9.54777 30.8574 8.47346 30.8578 7.39309L31.0081 7.56823C32.1485 8.89745 32.5227 10.6682 32.118 12.6761L32.118 12.6761ZM2.50778 13.6384C3.73629 10.7081 6.271 7.83715 9.64497 5.55432C13.019 3.27153 16.8087 1.8634 20.3162 1.58931C20.7286 1.5571 21.1302 1.54105 21.5212 1.54116C24.3163 1.54116 26.5381 2.3583 27.8529 3.89072C29.3515 5.63746 29.5285 8.14604 28.3511 10.9543C27.1226 13.8846 24.5879 16.7556 21.2139 19.0384C17.8399 21.3212 14.0502 22.7293 10.5427 23.0034C7.18164 23.266 4.50589 22.449 3.00698 20.7031L3.00598 20.702L3.00595 20.702C1.50737 18.9552 1.33044 16.4467 2.50778 13.6384V13.6384ZM4.78082 25.3134C6.4347 27.2411 9.1401 28.2703 12.4892 28.2703C12.9317 28.2703 13.3853 28.2522 13.85 28.216C14.684 28.1492 15.5118 28.0306 16.3272 27.8613L13.8039 33.3386L12.1977 32.7551L11.5406 34.1814L13.1468 34.765L12.4898 36.1913L14.0959 36.7748L14.753 35.3485L16.3592 35.932L15.7021 37.3583L17.3083 37.9418L17.9654 36.5155L18.7685 36.8072C19.4038 37.038 20.102 37.0963 20.7746 36.9748C21.4473 36.8533 22.0643 36.5573 22.5475 36.1244C23.0308 35.6914 23.3586 35.141 23.4896 34.5426C23.6206 33.9442 23.5488 33.3248 23.2833 32.7626C23.2547 32.7018 23.2232 32.6426 23.1906 32.584C23.6437 32.445 24.0594 32.224 24.4112 31.9348C24.763 31.6457 25.0434 31.2948 25.2345 30.9044C25.2593 30.9309 25.2834 30.9576 25.3084 30.984C27.5508 33.3546 30.2003 35.2444 32.9585 36.4678C31.9597 38.3853 29.6641 39.7121 26.4588 40.2154C22.9916 40.7598 18.92 40.2742 14.9942 38.8479C11.0682 37.4217 7.78078 35.2339 5.73738 32.6876C3.77898 30.2473 3.21607 27.784 4.1524 25.7516C4.26545 25.5082 4.39928 25.2728 4.55271 25.0475L4.78082 25.3134ZM13.5392 39.9712L12.2255 42.8229C10.6194 42.1878 9.0972 41.3972 7.68655 40.4654L8.98122 37.655C10.4079 38.5627 11.9352 39.3387 13.5392 39.9712L13.5392 39.9712ZM15.146 40.5534C16.789 41.101 18.4907 41.4984 20.2245 41.7394L18.9298 44.55C17.1882 44.3366 15.4785 43.9531 13.8317 43.4064L15.146 40.5534ZM2.18118 30.0306L2.27505 29.8268C2.59146 30.87 3.08062 31.8656 3.72652 32.7811L2.60342 35.2191C1.62529 33.3734 1.46869 31.5772 2.18118 30.0306ZM3.76616 36.9667C3.74622 36.9418 3.72733 36.9169 3.70768 36.8921L4.91428 34.2729C5.70826 35.1448 6.59431 35.9473 7.56032 36.6693L6.28252 39.4431C5.34418 38.7019 4.50034 37.8715 3.76616 36.9667ZM20.7381 44.6947L22.0162 41.9203C22.5392 41.9546 23.0578 41.973 23.5695 41.973C24.3132 41.9736 25.0562 41.9352 25.7948 41.8582L24.5881 44.4777C24.5545 44.4832 24.5214 44.4891 24.4876 44.4945C23.2498 44.6829 21.9924 44.75 20.7381 44.6947ZM26.6962 43.9717L27.8193 41.5337C29.0026 41.2827 30.1373 40.877 31.1863 40.3298L31.0925 40.5336C30.38 42.0802 28.8506 43.264 26.6962 43.9717ZM32.6457 34.5676L35.2298 32.64C36.299 33.2364 37.4301 33.7406 38.6075 34.1458L36.1674 35.9659C36.1347 35.9569 36.1023 35.9485 36.0696 35.9392C34.8752 35.5947 33.727 35.1347 32.6457 34.5676ZM43.9912 35.1614C42.5503 36.2362 40.5763 36.6523 38.2985 36.3888L40.5698 34.6946C41.5559 34.9149 42.5683 35.0293 43.5851 35.0353C43.7868 35.0353 43.9855 35.0286 44.1825 35.0187L43.9912 35.1614ZM47.9776 32.1878C46.084 33.6002 43.2708 33.8763 40.056 32.9656C36.7016 32.0153 33.3518 29.9035 30.6236 27.0192C29.3179 25.6486 28.2121 24.1373 27.3324 22.521C30.0132 20.3344 32.0381 17.7801 33.1326 15.1695C33.9453 13.231 34.1927 11.3918 33.8865 9.76216C37.7123 10.2977 41.9775 12.6664 45.2405 16.1161C47.9687 19.0003 49.7328 22.295 50.2078 25.3931C50.6631 28.3623 49.8711 30.7754 47.9776 32.1878H47.9776Z" fill="#40D4E6"/>
<path d="M43.6808 19.4649C42.9475 19.4085 42.213 19.5604 41.5832 19.8987C40.9534 20.2371 40.4609 20.7443 40.1767 21.3472L38.7306 20.9722L38.5643 19.6431C39.3878 19.4782 40.1155 19.0525 40.6111 18.4456C41.1067 17.8388 41.3363 17.0923 41.257 16.346C41.1777 15.5996 40.7948 14.9045 40.1801 14.3907C39.5654 13.8769 38.7609 13.5796 37.9172 13.5545C37.0735 13.5293 36.2484 13.778 35.5962 14.2541C34.9441 14.7301 34.5096 15.4008 34.3741 16.1408C34.2386 16.8807 34.4113 17.6392 34.86 18.2742C35.3087 18.9092 36.0025 19.3773 36.8117 19.5908L37.0184 21.243L36.626 21.5357C35.9387 21.1007 35.0963 20.9032 34.2567 20.9802C33.4172 21.0572 32.638 21.4034 32.0654 21.9541C31.4927 22.5047 31.1658 23.2218 31.146 23.9711C31.1261 24.7205 31.4147 25.4505 31.9575 26.0244C32.5004 26.5983 33.2603 26.9767 34.0949 27.0887C34.9294 27.2007 35.7813 27.0386 36.4909 26.6327C37.2005 26.2269 37.7191 25.6052 37.9494 24.8841C38.1797 24.163 38.1061 23.3921 37.7422 22.7158L38.1346 22.4231L39.9315 22.8891C40.0236 23.5946 40.3872 24.2502 40.9607 24.7453C41.5343 25.2403 42.2826 25.5443 43.0794 25.6061C43.1821 25.614 43.2843 25.6179 43.3861 25.6179C44.2011 25.6186 44.9899 25.3626 45.6125 24.8955V24.8955C46.1381 24.5035 46.521 23.9818 46.7128 23.3964C46.9045 22.8111 46.8965 22.1884 46.6897 21.6071C46.483 21.0258 46.0868 20.5121 45.5512 20.1307C45.0156 19.7494 44.3647 19.5177 43.6808 19.4649V19.4649ZM36.4705 17.6265C36.2122 17.3535 36.0685 17.0094 36.0639 16.6529C36.0594 16.2964 36.1941 15.9495 36.4453 15.6713C36.6964 15.3931 37.0484 15.2008 37.4413 15.1273C37.8342 15.0537 38.2436 15.1034 38.5999 15.2679C38.9561 15.4324 39.2371 15.7014 39.395 16.0293C39.5529 16.3571 39.5778 16.7234 39.4657 17.0658C39.3535 17.4081 39.1112 17.7054 38.7799 17.9068C38.4486 18.1083 38.0489 18.2015 37.6489 18.1706C37.4217 18.1536 37.2006 18.0968 36.9983 18.0034C36.796 17.91 36.6166 17.7819 36.4705 17.6265ZM36.3389 24.1793C36.3097 24.4771 36.1835 24.761 35.9758 24.9963C35.7681 25.2315 35.4878 25.4081 35.1691 25.5044C34.8504 25.6007 34.5071 25.6125 34.1809 25.5386C33.8547 25.4646 33.5598 25.308 33.3321 25.0878C33.1044 24.8676 32.9537 24.5933 32.8985 24.2984C32.8432 24.0035 32.8858 23.7007 33.0209 23.4269C33.1561 23.1531 33.378 22.9201 33.6596 22.7564C33.9413 22.5926 34.2705 22.5051 34.6071 22.5046C34.658 22.5046 34.7092 22.5066 34.7604 22.5105C34.9875 22.528 35.2084 22.5851 35.4106 22.6785C35.6128 22.7718 35.7923 22.8996 35.9389 23.0546C36.0855 23.2096 36.1962 23.3886 36.2649 23.5816C36.3335 23.7746 36.3587 23.9777 36.3389 24.1793ZM45.109 22.669C45.0899 22.8707 45.0259 23.0671 44.9207 23.2467C44.8155 23.4264 44.6713 23.5857 44.4963 23.7155V23.7155C44.2827 23.8748 44.0291 23.986 43.7569 24.0397C43.4846 24.0935 43.2018 24.0881 42.9324 24.0242C42.663 23.9603 42.4148 23.8397 42.2091 23.6725C42.0033 23.5054 41.8459 23.2966 41.7502 23.064C41.6545 22.8314 41.6234 22.5817 41.6595 22.3361C41.6955 22.0906 41.7977 21.8563 41.9573 21.6533C42.1169 21.4502 42.3293 21.2843 42.5765 21.1696C42.8236 21.0548 43.0983 20.9947 43.3772 20.9943C43.4281 20.9943 43.4792 20.9962 43.5305 21.0002C43.7575 21.0177 43.9784 21.0748 44.1806 21.1682C44.3828 21.2615 44.5624 21.3893 44.7089 21.5443C44.8555 21.6992 44.9663 21.8783 45.0349 22.0713C45.1036 22.2643 45.1287 22.4674 45.109 22.669V22.669Z" fill="#40D4E6"/>
<path d="M47.8435 13.4489C48.1172 13.7383 48.3855 14.0368 48.641 14.3361L50.024 13.4052C49.7511 13.0854 49.4645 12.7666 49.1723 12.4577C46.4093 9.53661 42.9827 7.31812 39.5238 6.21094L38.9353 7.66068C42.1107 8.67714 45.2743 10.7328 47.8435 13.4489Z" fill="#40D4E6"/>
<path d="M37.4979 5.69264C36.885 5.57515 36.2634 5.49715 35.6379 5.45923L35.5242 6.99701C36.0659 7.03001 36.6043 7.09774 37.135 7.19967L37.4979 5.69264Z" fill="#40D4E6"/>
<path d="M37.4213 40.0747L37.3049 40.0763L37.3278 41.6173L37.4524 41.6155C38.0085 41.6069 38.5696 41.5829 39.1201 41.5443L38.9834 40.0081C38.4681 40.0442 37.9428 40.0667 37.4213 40.0747Z" fill="#40D4E6"/>
<path d="M40.6597 39.8393L40.9144 41.3637C43.9533 40.9632 46.7658 40.0985 49.048 38.8629L48.1446 37.5471C46.059 38.6763 43.4708 39.4689 40.6597 39.8393Z" fill="#40D4E6"/>
</svg>
