<svg width="52" height="47" viewBox="0 0 52 47" fill="none" xmlns="http://www.w3.org/2000/svg">
<path d="M8.38698 10.4829C7.92485 10.4829 7.54827 10.1485 7.54827 9.73811H5.87085C5.87085 10.97 6.99975 11.9725 8.38698 11.9725V13.4621H10.0644V11.9725H12.5805V9.73811C12.5805 8.50621 11.4516 7.50371 10.0644 7.50371H8.38698C7.92485 7.50371 7.54827 7.16929 7.54827 6.75891V6.01411H10.0644C10.5265 6.01411 10.9031 6.34853 10.9031 6.75891H12.5805C12.5805 5.52701 11.4516 4.52451 10.0644 4.52451V3.03491H8.38698V4.52451H5.87085V6.75891C5.87085 7.99081 6.99975 8.99331 8.38698 8.99331H10.0644C10.5265 8.99331 10.9031 9.32772 10.9031 9.73811V10.4829H8.38698Z" fill="#40D4E6"/>
<path d="M9.22581 16.4413C14.3126 16.4413 18.4516 12.7657 18.4516 8.24846C18.4516 3.73125 14.3126 0.0556641 9.22581 0.0556641C4.13903 0.0556641 0 3.73125 0 8.24846C0 12.7657 4.13903 16.4413 9.22581 16.4413ZM9.22581 1.54526C13.3875 1.54526 16.7742 4.55276 16.7742 8.24846C16.7742 11.9442 13.3875 14.9517 9.22581 14.9517C5.06413 14.9517 1.67742 11.9442 1.67742 8.24846C1.67742 4.55276 5.06413 1.54526 9.22581 1.54526Z" fill="#40D4E6"/>
<path d="M9.22581 29.8477C4.13903 29.8477 0 33.5232 0 38.0405C0 42.5577 4.13903 46.2332 9.22581 46.2332C14.3126 46.2332 18.4516 42.5577 18.4516 38.0405C18.4516 33.5232 14.3126 29.8477 9.22581 29.8477ZM9.22581 44.7436C5.06413 44.7436 1.67742 41.7361 1.67742 38.0405C1.67742 34.3448 5.06413 31.3373 9.22581 31.3373C13.3875 31.3373 16.7742 34.3448 16.7742 38.0405C16.7742 41.7361 13.3875 44.7436 9.22581 44.7436Z" fill="#40D4E6"/>
<path d="M26.8387 17.931V16.4414H25.1613V17.931H23.4839V28.3582H25.1613V29.8478H26.8387V28.3582C28.6889 28.3582 30.1936 27.022 30.1936 25.379C30.1936 24.4905 29.7532 23.6905 29.0554 23.1446C29.7532 22.5987 30.1936 21.7988 30.1936 20.9102C30.1936 19.2672 28.6889 17.931 26.8387 17.931ZM26.8387 26.8686H25.1613V23.8894H26.8387C27.7638 23.8894 28.5161 24.5575 28.5161 25.379C28.5161 26.2005 27.7638 26.8686 26.8387 26.8686ZM26.8387 22.3998H25.1613V19.4206H26.8387C27.7638 19.4206 28.5161 20.0887 28.5161 20.9102C28.5161 21.7317 27.7638 22.3998 26.8387 22.3998Z" fill="#40D4E6"/>
<path d="M43.1214 20.9101H47.1221C47.4693 21.7748 48.3919 22.3997 49.4839 22.3997C50.8711 22.3997 52 21.3972 52 20.1653C52 18.9334 50.8711 17.9309 49.4839 17.9309C48.3919 17.9309 47.4693 18.5557 47.1221 19.4205H42.427L40.7495 20.9101H36.5988C35.651 17.3648 32.5084 14.5748 28.5161 13.7324V10.0464L30.1935 8.55681V4.38742C31.1673 4.07907 31.871 3.25979 31.871 2.29006C31.871 1.05816 30.7421 0.0556641 29.3548 0.0556641C27.9676 0.0556641 26.8387 1.05816 26.8387 2.29006C26.8387 3.25979 27.5424 4.07907 28.5161 4.38742V7.94011L26.8387 9.42971V13.5C26.5611 13.4807 26.2835 13.4621 26 13.4621C25.7165 13.4621 25.4389 13.4807 25.1613 13.5V9.42971L23.4839 7.94011V4.38742C24.4576 4.07907 25.1613 3.25979 25.1613 2.29006C25.1613 1.05816 24.0324 0.0556641 22.6452 0.0556641C21.2579 0.0556641 20.129 1.05816 20.129 2.29006C20.129 3.25979 20.8327 4.07907 21.8065 4.38742V8.55681L23.4839 10.0464V13.7324C19.4916 14.574 16.3498 17.3648 15.4012 20.9101H11.2505L9.57303 19.4205H4.87794C4.53071 18.5557 3.60813 17.9309 2.51613 17.9309C1.1289 17.9309 0 18.9334 0 20.1653C0 21.3972 1.1289 22.3997 2.51613 22.3997C3.60813 22.3997 4.53071 21.7748 4.87794 20.9101H8.87858L10.556 22.3997H15.1395C15.1177 22.6462 15.0968 22.8927 15.0968 23.1445C15.0968 23.3962 15.1177 23.6427 15.1395 23.8893H10.556L8.87858 25.3789H4.87794C4.53071 24.5141 3.60813 23.8893 2.51613 23.8893C1.1289 23.8893 0 24.8918 0 26.1237C0 27.3556 1.1289 28.3581 2.51613 28.3581C3.60813 28.3581 4.53071 27.7332 4.87794 26.8685H9.57303L11.2505 25.3789H15.4012C16.349 28.9241 19.4916 31.7141 23.4839 32.5565V36.2425L21.8065 37.7321V41.9015C20.8327 42.2098 20.129 43.0291 20.129 43.9988C20.129 45.2307 21.2579 46.2332 22.6452 46.2332C24.0324 46.2332 25.1613 45.2307 25.1613 43.9988C25.1613 43.0291 24.4576 42.2098 23.4839 41.9015V38.3488L25.1613 36.8592V32.7889C25.4389 32.8082 25.7165 32.8269 26 32.8269C26.2835 32.8269 26.5611 32.8082 26.8387 32.7889V36.8592L28.5161 38.3488V41.9015C27.5424 42.2098 26.8387 43.0291 26.8387 43.9988C26.8387 45.2307 27.9676 46.2332 29.3548 46.2332C30.7421 46.2332 31.871 45.2307 31.871 43.9988C31.871 43.0291 31.1673 42.2098 30.1935 41.9015V37.7321L28.5161 36.2425V32.5565C32.5084 31.7149 35.6502 28.9241 36.5988 25.3789H40.7495L42.427 26.8685H47.1221C47.4693 27.7332 48.3919 28.3581 49.4839 28.3581C50.8711 28.3581 52 27.3556 52 26.1237C52 24.8918 50.8711 23.8893 49.4839 23.8893C48.3919 23.8893 47.4693 24.5141 47.1221 25.3789H43.1214L41.444 23.8893H36.8605C36.8823 23.6427 36.9032 23.3962 36.9032 23.1445C36.9032 22.8927 36.8823 22.6462 36.8605 22.3997H41.444L43.1214 20.9101ZM49.4839 19.4205C49.946 19.4205 50.3226 19.7549 50.3226 20.1653C50.3226 20.5756 49.946 20.9101 49.4839 20.9101C49.0217 20.9101 48.6452 20.5756 48.6452 20.1653C48.6452 19.7549 49.0217 19.4205 49.4839 19.4205ZM29.3548 1.54526C29.817 1.54526 30.1935 1.87968 30.1935 2.29006C30.1935 2.70045 29.817 3.03486 29.3548 3.03486C28.8927 3.03486 28.5161 2.70045 28.5161 2.29006C28.5161 1.87968 28.8927 1.54526 29.3548 1.54526ZM22.6452 1.54526C23.1073 1.54526 23.4839 1.87968 23.4839 2.29006C23.4839 2.70045 23.1073 3.03486 22.6452 3.03486C22.183 3.03486 21.8065 2.70045 21.8065 2.29006C21.8065 1.87968 22.183 1.54526 22.6452 1.54526ZM2.51613 20.9101C2.054 20.9101 1.67742 20.5756 1.67742 20.1653C1.67742 19.7549 2.054 19.4205 2.51613 19.4205C2.97826 19.4205 3.35484 19.7549 3.35484 20.1653C3.35484 20.5756 2.97826 20.9101 2.51613 20.9101ZM2.51613 26.8685C2.054 26.8685 1.67742 26.534 1.67742 26.1237C1.67742 25.7133 2.054 25.3789 2.51613 25.3789C2.97826 25.3789 3.35484 25.7133 3.35484 26.1237C3.35484 26.534 2.97826 26.8685 2.51613 26.8685ZM22.6452 44.7436C22.183 44.7436 21.8065 44.4092 21.8065 43.9988C21.8065 43.5885 22.183 43.254 22.6452 43.254C23.1073 43.254 23.4839 43.5885 23.4839 43.9988C23.4839 44.4092 23.1073 44.7436 22.6452 44.7436ZM29.3548 44.7436C28.8927 44.7436 28.5161 44.4092 28.5161 43.9988C28.5161 43.5885 28.8927 43.254 29.3548 43.254C29.817 43.254 30.1935 43.5885 30.1935 43.9988C30.1935 44.4092 29.817 44.7436 29.3548 44.7436ZM49.4839 25.3789C49.946 25.3789 50.3226 25.7133 50.3226 26.1237C50.3226 26.534 49.946 26.8685 49.4839 26.8685C49.0217 26.8685 48.6452 26.534 48.6452 26.1237C48.6452 25.7133 49.0217 25.3789 49.4839 25.3789ZM26 31.3373C20.9132 31.3373 16.7742 27.6617 16.7742 23.1445C16.7742 18.6272 20.9132 14.9517 26 14.9517C31.0868 14.9517 35.2258 18.6272 35.2258 23.1445C35.2258 27.6617 31.0868 31.3373 26 31.3373Z" fill="#40D4E6"/>
<path d="M42.7741 16.4413C47.8609 16.4413 52 12.7657 52 8.24846C52 3.73125 47.8609 0.0556641 42.7741 0.0556641C37.6874 0.0556641 33.5483 3.73125 33.5483 8.24846C33.5483 12.7657 37.6874 16.4413 42.7741 16.4413ZM42.7741 1.54526C46.9358 1.54526 50.3225 4.55276 50.3225 8.24846C50.3225 11.9442 46.9358 14.9517 42.7741 14.9517C38.6125 14.9517 35.2258 11.9442 35.2258 8.24846C35.2258 4.55276 38.6125 1.54526 42.7741 1.54526Z" fill="#40D4E6"/>
<path d="M42.7741 29.8477C37.6874 29.8477 33.5483 33.5232 33.5483 38.0405C33.5483 42.5577 37.6874 46.2332 42.7741 46.2332C47.8609 46.2332 52 42.5577 52 38.0405C52 33.5232 47.8609 29.8477 42.7741 29.8477ZM42.7741 44.7436C38.6125 44.7436 35.2258 41.7361 35.2258 38.0405C35.2258 34.3448 38.6125 31.3373 42.7741 31.3373C46.9358 31.3373 50.3225 34.3448 50.3225 38.0405C50.3225 41.7361 46.9358 44.7436 42.7741 44.7436Z" fill="#40D4E6"/>
<path d="M42.7742 13.4621C44.6244 13.4621 46.129 12.1259 46.129 10.4829H44.4516C44.4516 11.3044 43.6993 11.9725 42.7742 11.9725C41.8491 11.9725 41.0968 11.3044 41.0968 10.4829H42.7742V8.99331H41.0968V7.50371H42.7742V6.01411H41.0968C41.0968 5.1926 41.8491 4.52451 42.7742 4.52451C43.6993 4.52451 44.4516 5.1926 44.4516 6.01411H46.129C46.129 4.37108 44.6244 3.03491 42.7742 3.03491C40.924 3.03491 39.4194 4.37108 39.4194 6.01411H37.7419V7.50371H39.4194V8.99331H37.7419V10.4829H39.4194C39.4194 12.1259 40.924 13.4621 42.7742 13.4621Z" fill="#40D4E6"/>
<path d="M46.722 34.0983L45.5361 33.0452L42.7742 35.4978L40.0124 33.0452L38.8264 34.0983L41.9355 36.8593V37.2957H40.2581V38.7853H41.9355V40.2749H40.2581V41.7645H41.9355V43.2541H43.6129V41.7645H45.2904V40.2749H43.6129V38.7853H45.2904V37.2957H43.6129V36.8593L46.722 34.0983Z" fill="#40D4E6"/>
<path d="M5.87102 36.5509V37.2957H4.1936V38.7853H5.87102V43.2541H11.742V41.7645H7.54844V38.7853H9.22586V37.2957H7.54844V36.5509C7.54844 35.319 8.67735 34.3165 10.0646 34.3165H11.742V32.8269H10.0646C7.75225 32.8269 5.87102 34.4975 5.87102 36.5509Z" fill="#40D4E6"/>
</svg>
