<svg width="50" height="45" viewBox="0 0 50 45" fill="none" xmlns="http://www.w3.org/2000/svg">
<path d="M25 15.0648C20.5688 15.0648 16.9643 18.2657 16.9643 22.2008C16.9643 26.1358 20.5688 29.3367 25 29.3367C29.4312 29.3367 33.0357 26.1358 33.0357 22.2008C33.0357 18.2657 29.4312 15.0648 25 15.0648ZM25 27.751C21.5545 27.751 18.75 25.2605 18.75 22.2008C18.75 19.141 21.5545 16.6506 25 16.6506C28.4455 16.6506 31.25 19.141 31.25 22.2008C31.25 25.2605 28.4455 27.751 25 27.751ZM28.0357 20.9321V21.5665H26.25V20.9321C26.25 20.6697 26.0089 20.4556 25.7134 20.4556H24.2848C23.9893 20.4556 23.7482 20.6697 23.7482 20.9321V23.4686C23.7482 23.731 23.9893 23.9451 24.2848 23.9451H25.7134C26.0089 23.9451 26.25 23.731 26.25 23.4686V22.8145H28.0357V23.4686C28.0357 24.5509 27.0875 25.4318 25.8929 25.5142V26.6401H24.1071V25.5142C22.9116 25.4318 21.9643 24.5509 21.9643 23.4686V20.9321C21.9643 19.8499 22.9125 18.969 24.1071 18.8865V17.7606H25.8929V18.8865C27.0884 18.969 28.0357 19.8499 28.0357 20.9321ZM44.8071 22.9936C45.1768 23.9142 46.1589 24.5794 47.3214 24.5794C48.7982 24.5794 50 23.5122 50 22.2008C50 20.8893 48.7982 19.8221 47.3214 19.8221C46.1589 19.8221 45.1768 20.4873 44.8071 21.4079H37.5V19.8221H41.0714C41.5652 19.8221 41.9643 19.4677 41.9643 19.0292C41.9643 18.5908 41.5652 18.2363 41.0714 18.2363H37.5V16.6506H41.0714C41.5652 16.6506 41.9643 16.2962 41.9643 15.8577V13.479H43.9143C44.2839 14.3996 45.2661 15.0648 46.4286 15.0648C47.9054 15.0648 49.1071 13.9976 49.1071 12.6861C49.1071 11.3747 47.9054 10.3075 46.4286 10.3075C45.2661 10.3075 44.2839 10.9727 43.9143 11.8933H41.0714C40.5777 11.8933 40.1786 12.2477 40.1786 12.6861V15.0648H37.5V11.8933C37.5 11.4548 37.1009 11.1004 36.6071 11.1004H33.0357V8.72173H35.7143C36.208 8.72173 36.6071 8.36731 36.6071 7.92884V5.4043C37.6437 5.07605 38.3929 4.20387 38.3929 3.17154C38.3929 1.86011 37.1911 0.792884 35.7143 0.792884C34.2375 0.792884 33.0357 1.86011 33.0357 3.17154C33.0357 4.20387 33.7848 5.07605 34.8214 5.4043V7.13596H32.1429C31.6491 7.13596 31.25 7.49038 31.25 7.92884V11.1004H29.4643V7.92884C29.4643 7.49038 29.0652 7.13596 28.5714 7.13596C28.0777 7.13596 27.6786 7.49038 27.6786 7.92884V11.1004H25.8929V4.61142C26.9295 4.28316 27.6786 3.41099 27.6786 2.37865C27.6786 1.06722 26.4768 0 25 0C23.5232 0 22.3214 1.06722 22.3214 2.37865C22.3214 3.41099 23.0705 4.28316 24.1071 4.61142V11.1004H22.3214V7.92884C22.3214 7.49038 21.9223 7.13596 21.4286 7.13596C20.9348 7.13596 20.5357 7.49038 20.5357 7.92884V11.1004H18.75V7.92884C18.75 7.49038 18.3509 7.13596 17.8571 7.13596H15.1786V5.4043C16.2152 5.07605 16.9643 4.20387 16.9643 3.17154C16.9643 1.86011 15.7625 0.792884 14.2857 0.792884C12.8089 0.792884 11.6071 1.86011 11.6071 3.17154C11.6071 4.20387 12.3562 5.07605 13.3929 5.4043V7.92884C13.3929 8.36731 13.792 8.72173 14.2857 8.72173H16.9643V11.1004H13.3929C12.8991 11.1004 12.5 11.4548 12.5 11.8933V15.0648H9.82143V12.6861C9.82143 12.2477 9.42232 11.8933 8.92857 11.8933H6.08571C5.71607 10.9727 4.73393 10.3075 3.57143 10.3075C2.09464 10.3075 0.892857 11.3747 0.892857 12.6861C0.892857 13.9976 2.09464 15.0648 3.57143 15.0648C4.73393 15.0648 5.71607 14.3996 6.08571 13.479H8.03571V15.8577C8.03571 16.2962 8.43482 16.6506 8.92857 16.6506H12.5V18.2363H8.92857C8.43482 18.2363 8.03571 18.5908 8.03571 19.0292C8.03571 19.4677 8.43482 19.8221 8.92857 19.8221H12.5V21.4079H5.19286C4.82321 20.4873 3.84107 19.8221 2.67857 19.8221C1.20179 19.8221 0 20.8893 0 22.2008C0 23.5122 1.20179 24.5794 2.67857 24.5794C3.84107 24.5794 4.82321 23.9142 5.19286 22.9936H12.5V24.5794H8.92857C8.43482 24.5794 8.03571 24.9338 8.03571 25.3723C8.03571 25.8108 8.43482 26.1652 8.92857 26.1652H12.5V27.751H8.92857C8.43482 27.751 8.03571 28.1054 8.03571 28.5438V30.9225H6.08571C5.71607 30.002 4.73393 29.3367 3.57143 29.3367C2.09464 29.3367 0.892857 30.4039 0.892857 31.7154C0.892857 33.0268 2.09464 34.094 3.57143 34.094C4.73393 34.094 5.71607 33.4288 6.08571 32.5083H8.92857C9.42232 32.5083 9.82143 32.1538 9.82143 31.7154V29.3367H12.5V32.5083C12.5 32.9467 12.8991 33.3011 13.3929 33.3011H16.9643V35.6798H14.2857C13.792 35.6798 13.3929 36.0342 13.3929 36.4727V38.9972C12.3562 39.3255 11.6071 40.1977 11.6071 41.23C11.6071 42.5414 12.8089 43.6086 14.2857 43.6086C15.7625 43.6086 16.9643 42.5414 16.9643 41.23C16.9643 40.1977 16.2152 39.3255 15.1786 38.9972V37.2656H17.8571C18.3509 37.2656 18.75 36.9111 18.75 36.4727V33.3011H20.5357V36.4727C20.5357 36.9111 20.9348 37.2656 21.4286 37.2656C21.9223 37.2656 22.3214 36.9111 22.3214 36.4727V33.3011H24.1071V39.7901C23.0705 40.1184 22.3214 40.9905 22.3214 42.0229C22.3214 43.3343 23.5232 44.4015 25 44.4015C26.4768 44.4015 27.6786 43.3343 27.6786 42.0229C27.6786 40.9905 26.9295 40.1184 25.8929 39.7901V33.3011H27.6786V36.4727C27.6786 36.9111 28.0777 37.2656 28.5714 37.2656C29.0652 37.2656 29.4643 36.9111 29.4643 36.4727V33.3011H31.25V36.4727C31.25 36.9111 31.6491 37.2656 32.1429 37.2656H34.8214V38.9972C33.7848 39.3255 33.0357 40.1977 33.0357 41.23C33.0357 42.5414 34.2375 43.6086 35.7143 43.6086C37.1911 43.6086 38.3929 42.5414 38.3929 41.23C38.3929 40.1977 37.6437 39.3255 36.6071 38.9972V36.4727C36.6071 36.0342 36.208 35.6798 35.7143 35.6798H33.0357V33.3011H36.6071C37.1009 33.3011 37.5 32.9467 37.5 32.5083V29.3367H40.1786V31.7154C40.1786 32.1538 40.5777 32.5083 41.0714 32.5083H43.9143C44.2839 33.4288 45.2661 34.094 46.4286 34.094C47.9054 34.094 49.1071 33.0268 49.1071 31.7154C49.1071 30.4039 47.9054 29.3367 46.4286 29.3367C45.2661 29.3367 44.2839 30.002 43.9143 30.9225H41.9643V28.5438C41.9643 28.1054 41.5652 27.751 41.0714 27.751H37.5V26.1652H41.0714C41.5652 26.1652 41.9643 25.8108 41.9643 25.3723C41.9643 24.9338 41.5652 24.5794 41.0714 24.5794H37.5V22.9936H44.8071ZM47.3214 21.4079C47.8143 21.4079 48.2143 21.7631 48.2143 22.2008C48.2143 22.6384 47.8143 22.9936 47.3214 22.9936C46.8286 22.9936 46.4286 22.6384 46.4286 22.2008C46.4286 21.7631 46.8286 21.4079 47.3214 21.4079ZM46.4286 11.8933C46.9214 11.8933 47.3214 12.2485 47.3214 12.6861C47.3214 13.1238 46.9214 13.479 46.4286 13.479C45.9357 13.479 45.5357 13.1238 45.5357 12.6861C45.5357 12.2485 45.9357 11.8933 46.4286 11.8933ZM35.7143 2.37865C36.2071 2.37865 36.6071 2.73387 36.6071 3.17154C36.6071 3.60921 36.2071 3.96442 35.7143 3.96442C35.2214 3.96442 34.8214 3.60921 34.8214 3.17154C34.8214 2.73387 35.2214 2.37865 35.7143 2.37865ZM25 1.58577C25.4929 1.58577 25.8929 1.94098 25.8929 2.37865C25.8929 2.81633 25.4929 3.17154 25 3.17154C24.5071 3.17154 24.1071 2.81633 24.1071 2.37865C24.1071 1.94098 24.5071 1.58577 25 1.58577ZM14.2857 2.37865C14.7786 2.37865 15.1786 2.73387 15.1786 3.17154C15.1786 3.60921 14.7786 3.96442 14.2857 3.96442C13.7929 3.96442 13.3929 3.60921 13.3929 3.17154C13.3929 2.73387 13.7929 2.37865 14.2857 2.37865ZM3.57143 13.479C3.07857 13.479 2.67857 13.1238 2.67857 12.6861C2.67857 12.2485 3.07857 11.8933 3.57143 11.8933C4.06429 11.8933 4.46429 12.2485 4.46429 12.6861C4.46429 13.1238 4.06429 13.479 3.57143 13.479ZM2.67857 22.9936C2.18571 22.9936 1.78571 22.6384 1.78571 22.2008C1.78571 21.7631 2.18571 21.4079 2.67857 21.4079C3.17143 21.4079 3.57143 21.7631 3.57143 22.2008C3.57143 22.6384 3.17143 22.9936 2.67857 22.9936ZM3.57143 32.5083C3.07857 32.5083 2.67857 32.153 2.67857 31.7154C2.67857 31.2777 3.07857 30.9225 3.57143 30.9225C4.06429 30.9225 4.46429 31.2777 4.46429 31.7154C4.46429 32.153 4.06429 32.5083 3.57143 32.5083ZM14.2857 42.0229C13.7929 42.0229 13.3929 41.6677 13.3929 41.23C13.3929 40.7923 13.7929 40.4371 14.2857 40.4371C14.7786 40.4371 15.1786 40.7923 15.1786 41.23C15.1786 41.6677 14.7786 42.0229 14.2857 42.0229ZM25 42.8158C24.5071 42.8158 24.1071 42.4605 24.1071 42.0229C24.1071 41.5852 24.5071 41.23 25 41.23C25.4929 41.23 25.8929 41.5852 25.8929 42.0229C25.8929 42.4605 25.4929 42.8158 25 42.8158ZM35.7143 42.0229C35.2214 42.0229 34.8214 41.6677 34.8214 41.23C34.8214 40.7923 35.2214 40.4371 35.7143 40.4371C36.2071 40.4371 36.6071 40.7923 36.6071 41.23C36.6071 41.6677 36.2071 42.0229 35.7143 42.0229ZM46.4286 30.9225C46.9214 30.9225 47.3214 31.2777 47.3214 31.7154C47.3214 32.153 46.9214 32.5083 46.4286 32.5083C45.9357 32.5083 45.5357 32.153 45.5357 31.7154C45.5357 31.2777 45.9357 30.9225 46.4286 30.9225ZM35.7143 31.7154H14.2857V12.6861H35.7143V31.7154Z" fill="#33A4B2"/>
</svg>
