<svg width="38" height="31" viewBox="0 0 38 31" fill="none" xmlns="http://www.w3.org/2000/svg">
<path d="M32.6511 2.00067C29.7188 2.00067 27.333 4.27074 27.333 7.06098C27.333 9.85121 29.7187 12.1214 32.6511 12.1214C35.5834 12.1214 37.9691 9.85121 37.9691 7.06098C37.9691 4.27074 35.5834 2.00067 32.6511 2.00067ZM32.6511 10.0034C30.9459 10.0034 29.5589 8.68351 29.5589 7.06098C29.5589 5.43856 30.9459 4.11868 32.6511 4.11868C34.3561 4.11868 35.7432 5.43856 35.7432 7.06098C35.7433 8.68351 34.3561 10.0034 32.6511 10.0034Z" fill="white"/>
<path d="M1.37717 8.81016C1.5945 9.01684 1.87933 9.12024 2.16416 9.12024C2.449 9.12024 2.73383 9.01684 2.95116 8.81016L5.84371 6.05776L8.73626 8.81016C8.95359 9.01684 9.23842 9.12024 9.52325 9.12024C9.80808 9.12024 10.0929 9.01684 10.3102 8.81016C10.7448 8.39668 10.7448 7.72603 10.3102 7.31243L7.41757 4.56015L10.3101 1.80775C10.7447 1.39427 10.7447 0.723622 10.3101 0.310019C9.87546 -0.10334 9.17092 -0.10334 8.73613 0.310019L5.84371 3.06242L2.95116 0.310019C2.5165 -0.10334 1.81196 -0.10334 1.37717 0.310019C0.942636 0.7235 0.942636 1.39414 1.37717 1.80775L4.26972 4.56015L1.37717 7.31243C0.942636 7.72603 0.942636 8.39656 1.37717 8.81016Z" fill="white"/>
<path d="M25.0279 21.3173C24.5932 20.9039 23.8887 20.9039 23.4539 21.3173L20.5615 24.0695L17.6689 21.3173C17.2343 20.9039 16.5297 20.9039 16.0949 21.3173C15.6604 21.7309 15.6604 22.4014 16.0949 22.815L18.9875 25.5673L16.0949 28.3197C15.6604 28.7331 15.6604 29.4038 16.0949 29.8174C16.3123 30.0241 16.5971 30.1275 16.8819 30.1275C17.1668 30.1275 17.4516 30.0241 17.6689 29.8174L20.5615 27.065L23.4539 29.8173C23.6712 30.024 23.9561 30.1273 24.2409 30.1273C24.5257 30.1273 24.8106 30.024 25.0279 29.8173C25.4624 29.4037 25.4624 28.7331 25.0279 28.3195L22.1355 25.5673L25.0279 22.815C25.4626 22.4014 25.4626 21.7307 25.0279 21.3173Z" fill="white"/>
<path d="M25.1145 6.46758L20.6264 2.75513C20.1626 2.37133 19.4596 2.41841 19.0564 2.85963C18.6531 3.30097 18.7024 3.96979 19.1662 4.35358L21.5463 6.32245C14.5212 7.19674 10.3616 10.6901 8.04918 13.6427C6.02378 16.229 5.07685 18.7764 4.69665 20.0424C2.05621 20.3362 0 22.4768 0 25.067C0 27.8573 2.38566 30.1275 5.31796 30.1275C8.25027 30.1275 10.6361 27.8574 10.6361 25.067C10.6361 22.8209 9.08968 20.913 6.95715 20.2538C7.35768 19.0497 8.22522 16.9415 9.8878 14.8401C12.7821 11.182 16.8029 9.02778 21.861 8.41516L19.6432 10.8429C19.2399 11.2842 19.2892 11.953 19.753 12.3368C19.9637 12.5112 20.2237 12.5966 20.4826 12.5966C20.7936 12.5966 21.103 12.4732 21.323 12.2323L25.2245 7.96153C25.6277 7.52008 25.5785 6.85138 25.1145 6.46758ZM8.4102 25.067C8.4102 26.6896 7.02312 28.0095 5.31796 28.0095C3.61294 28.0095 2.22585 26.6896 2.22585 25.067C2.22585 23.4446 3.61294 22.1247 5.31796 22.1247C7.02299 22.1247 8.4102 23.4446 8.4102 25.067Z" fill="white"/>
</svg>
