<?xml version="1.0" standalone="no"?>
<svg viewBox="0 0 200 200" xmlns="http://www.w3.org/2000/svg">
  <path fill="#FF0066" d="M44.6,-68.6C56.2,-61.9,63.1,-46.9,70.1,-31.9C77,-16.9,84.2,-1.9,81.8,11.5C79.4,24.8,67.5,36.5,56.5,48.7C45.5,60.9,35.4,73.5,23.8,73.6C12.1,73.7,-1.1,61.2,-13.2,53.7C-25.3,46.1,-36.2,43.5,-44.5,36.9C-52.8,30.3,-58.4,19.8,-64.4,6.6C-70.5,-6.6,-77,-22.3,-73.6,-35.2C-70.2,-48.1,-57,-58.1,-43.1,-63.8C-29.2,-69.5,-14.6,-70.9,0.9,-72.3C16.5,-73.8,32.9,-75.3,44.6,-68.6Z" transform="translate(100 100)" />
</svg>
