<svg width="1920" height="1080" viewBox="0 0 1920 1080" xmlns="http://www.w3.org/2000/svg"><rect width="1920" height="1080" fill="#128dba"/><path d="M 0,1080 C 0,1080 0,180 0,180 C 77,208.77692307692308 154,237.55384615384614 279,236 C 404,234.44615384615386 577,202.56153846153848 688,200 C 799,197.43846153846152 848,224.2 952,220 C 1056,215.8 1215,180.63846153846154 1335,163 C 1455,145.36153846153846 1535.9999999999998,145.24615384615385 1627,151 C 1718.0000000000002,156.75384615384615 1819,168.37692307692308 1920,180 C 1920,180 1920,1080 1920,1080 Z" fill="#121212" opacity="0.09999999999999999"/><path d="M 0,1080 C 0,1080 0,360 0,360 C 93.03076923076924,330.0820512820513 186.06153846153848,300.16410256410256 303,313 C 419.9384615384615,325.83589743589744 560.7846153846153,381.425641025641 672,403 C 783.2153846153847,424.574358974359 864.8000000000002,412.1333333333334 971,379 C 1077.1999999999998,345.8666666666666 1208.0153846153846,292.0410256410256 1306,301 C 1403.9846153846154,309.9589743589744 1469.1384615384613,381.7025641025641 1566,402 C 1662.8615384615387,422.2974358974359 1791.4307692307693,391.14871794871794 1920,360 C 1920,360 1920,1080 1920,1080 Z" fill="#121212" opacity="0.19999999999999998"/><path d="M 0,1080 C 0,1080 0,540 0,540 C 106.17179487179487,558.8820512820513 212.34358974358975,577.7641025641026 317,587 C 421.65641025641025,596.2358974358974 524.7974358974359,595.825641025641 637,575 C 749.2025641025641,554.174358974359 870.4666666666667,512.9333333333333 962,499 C 1053.5333333333333,485.0666666666667 1115.3358974358976,498.4410256410256 1221,510 C 1326.6641025641024,521.5589743589744 1476.1897435897436,531.3025641025641 1600,536 C 1723.8102564102564,540.6974358974359 1821.9051282051282,540.3487179487179 1920,540 C 1920,540 1920,1080 1920,1080 Z" fill="#121212" opacity="0.3"/><path d="M 0,1080 C 0,1080 0,720 0,720 C 105.95897435897433,718.0102564102564 211.91794871794866,716.0205128205127 335,705 C 458.08205128205134,693.9794871794873 598.2871794871796,673.9282051282053 688,687 C 777.7128205128204,700.0717948717947 816.9333333333332,746.2666666666667 902,739 C 987.0666666666668,731.7333333333333 1117.9794871794875,671.0051282051281 1255,668 C 1392.0205128205125,664.9948717948719 1535.1487179487178,719.7128205128205 1647,738 C 1758.8512820512822,756.2871794871795 1839.4256410256412,738.1435897435897 1920,720 C 1920,720 1920,1080 1920,1080 Z" fill="#121212" opacity="0.39999999999999997"/><path d="M 0,1080 C 0,1080 0,900 0,900 C 76.45897435897436,857.0128205128206 152.91794871794872,814.025641025641 269,835 C 385.0820512820513,855.974358974359 540.7871794871795,940.9102564102564 665,943 C 789.2128205128205,945.0897435897436 881.9333333333332,864.3333333333334 998,863 C 1114.0666666666668,861.6666666666666 1253.479487179487,939.7564102564103 1338,960 C 1422.520512820513,980.2435897435897 1452.148717948718,942.6410256410257 1540,923 C 1627.851282051282,903.3589743589743 1773.925641025641,901.6794871794871 1920,900 C 1920,900 1920,1080 1920,1080 Z" fill="#121212" opacity="0.49999999999999994"/></svg>