<svg xmlns="http://www.w3.org/2000/svg" width="1920" height="1080"><path fill="#128dba" d="M0 0h1920v1080H0z"/><path fill="#121212" d="M0 1080V180c77 28.777 154 57.554 279 56 125-1.554 298-33.438 409-36 111-2.562 160 24.2 264 20 104-4.2 263-39.362 383-57 120-17.638 201-17.754 292-12 91 5.754 192 17.377 293 29v900Z" opacity=".1"/><path fill="#121212" d="M0 1080V360c93.03-29.918 186.062-59.836 303-47 116.938 12.836 257.785 68.426 369 90 111.215 21.574 192.8 9.133 299-24 106.2-33.133 237.015-86.959 335-78 97.985 8.959 163.138 80.703 260 101 96.862 20.297 225.43-10.851 354-42v720Z" opacity=".2"/><path fill="#121212" d="M0 1080V540c106.172 18.882 212.344 37.764 317 47 104.656 9.236 207.797 8.826 320-12s233.467-62.067 325-76c91.533-13.933 153.336-.559 259 11 105.664 11.559 255.19 21.303 379 26 123.81 4.697 221.905 4.349 320 4v540Z" opacity=".3"/><path fill="#121212" d="M0 1080V720c105.959-1.99 211.918-3.98 335-15s263.287-31.072 353-18c89.713 13.072 128.933 59.267 214 52 85.067-7.267 215.98-67.995 353-71 137.02-3.005 280.149 51.713 392 70s192.426.144 273-18v360Z" opacity=".4"/><path fill="#121212" d="M0 1080V900c76.459-42.987 152.918-85.974 269-65 116.082 20.974 271.787 105.91 396 108 124.213 2.09 216.933-78.667 333-80 116.067-1.333 255.48 76.756 340 97 84.52 20.244 114.149-17.359 202-37s233.926-21.32 380-23v180Z" opacity=".5"/></svg>